<svg width="52" height="53" viewBox="0 0 52 53" fill="none" xmlns="http://www.w3.org/2000/svg">
<path d="M3.49682 19.8794C4.7871 18.7133 6.15684 17.669 7.56165 16.6973C13.2113 12.8385 19.4639 10.1762 25.8686 8.27722C27.4744 7.8136 29.0896 7.3851 30.7164 7.01749C32.3456 6.65455 33.9818 6.34079 35.6251 6.07854C37.2706 5.81864 38.9209 5.61258 40.5758 5.47444C40.9778 5.43931 41.3799 5.41122 41.7819 5.3878C37.3922 2.01135 31.9015 0 25.9363 0C12.3885 0 1.25989 10.3565 0 23.5953C1.05886 22.2209 2.25096 21.0033 3.49682 19.8794Z" fill="#E12622"/>
<path d="M49.3757 31.5432C47.9755 32.4376 46.538 33.2782 45.0724 34.072C43.6045 34.8587 42.1155 35.6057 40.6009 36.3081C39.0862 37.0059 37.5435 37.6451 35.9844 38.2539C29.7434 40.6376 23.1612 42.3211 16.3358 42.6911C12.9278 42.8503 9.445 42.6934 5.97155 41.7662C5.59289 41.6655 5.21422 41.5484 4.83789 41.422C9.57356 47.9594 17.2568 52.214 25.9357 52.214C39.0208 52.214 49.8502 42.5506 51.7108 29.9626C50.9464 30.5035 50.1704 31.0351 49.3757 31.5432Z" fill="#E12622"/>
<path d="M42.9042 20.9404H37.8787V17.9737H50.7066C49.1709 13.2814 46.3449 9.17203 42.6447 6.07422C37.1026 6.69472 31.6798 8.17689 26.507 10.1625C24.99 10.7572 23.487 11.3824 22.0097 12.0638C20.5348 12.7475 19.0879 13.4781 17.6621 14.2437C16.2409 15.0164 14.8478 15.8313 13.4944 16.7C12.8539 17.1121 12.2252 17.5382 11.6057 17.9761H19.9785V20.8983H11.725V24.3145H19.0155V27.1454H11.725V30.7864H20.273V33.7086H8.11359V20.6454C6.16416 22.2774 4.37133 24.0593 2.94783 26.0191C1.47991 28.0001 0.484156 30.2854 0.615053 32.2522C0.769325 32.8891 0.944634 33.5166 1.14332 34.1348C2.11803 35.9916 4.45548 37.3591 7.022 38.099C9.90875 38.9653 13.0877 39.265 16.2596 39.2861C17.8491 39.2838 19.4526 39.2393 21.0537 39.1035C22.6549 38.97 24.2584 38.771 25.8548 38.5204C27.4513 38.2676 29.0455 37.9632 30.6326 37.6119C32.2174 37.256 33.7905 36.8392 35.3589 36.3897C37.9114 35.6357 40.4382 34.678 42.9042 33.5564V20.9404ZM25.8618 28.4449C26.2943 29.2083 26.8973 29.8054 27.6687 30.2315C28.4377 30.6577 29.3166 30.8707 30.3053 30.8707C31.3525 30.8707 32.2945 30.646 33.1313 30.1964V25.5907H36.4505V31.9736C35.5973 32.6175 34.6109 33.1116 33.4889 33.4558C32.367 33.8 31.238 33.9732 30.102 33.9732C28.4728 33.9732 27.0072 33.6244 25.7052 32.9289C24.4033 32.2335 23.3841 31.2665 22.6432 30.0301C21.9022 28.7938 21.5329 27.3983 21.5329 25.8389C21.5329 24.2818 21.9022 22.8839 22.6432 21.6476C23.3841 20.4112 24.4103 19.4442 25.7286 18.7488C27.0446 18.0534 28.5242 17.7045 30.1698 17.7045C31.5442 17.7045 32.7947 17.9363 33.9167 18.3999C35.0387 18.8635 35.9807 19.5379 36.7427 20.423L34.4099 22.5795C33.2879 21.397 31.9345 20.8046 30.3497 20.8046C29.347 20.8046 28.4588 21.0154 27.6804 21.4345C26.902 21.8536 26.2966 22.446 25.8642 23.2093C25.4294 23.9727 25.2144 24.8507 25.2144 25.8389C25.212 26.8129 25.4271 27.6816 25.8618 28.4449Z" fill="#E12622"/>
<path d="M51.4874 20.9404H46.5391V31.7629C48.3693 30.7911 50.1528 29.7375 51.8778 28.6135C51.9573 27.787 51.9993 26.9511 51.9993 26.1058C51.997 24.3356 51.8217 22.6099 51.4874 20.9404Z" fill="#E12622"/>
</svg>
