<svg width="18" height="18" viewBox="0 0 18 18" fill="none" xmlns="http://www.w3.org/2000/svg">
<path d="M10.6491 9.01584L17.658 2.00677C18.1141 1.55086 18.1141 0.813713 17.658 0.357802C17.202 -0.0981086 16.4649 -0.0981086 16.009 0.357802L8.99992 7.36687L1.99106 0.357802C1.53494 -0.0981086 0.798005 -0.0981086 0.342093 0.357802C-0.114031 0.813713 -0.114031 1.55086 0.342093 2.00677L7.35095 9.01584L0.342093 16.0249C-0.114031 16.4808 -0.114031 17.218 0.342093 17.6739C0.569302 17.9013 0.868046 18.0155 1.16658 18.0155C1.46511 18.0155 1.76364 17.9013 1.99106 17.6739L8.99992 10.6648L16.009 17.6739C16.2364 17.9013 16.5349 18.0155 16.8335 18.0155C17.132 18.0155 17.4305 17.9013 17.658 17.6739C18.1141 17.218 18.1141 16.4808 17.658 16.0249L10.6491 9.01584Z" fill="black"/>
</svg>
