<svg width="15" height="16" viewBox="0 0 15 16" fill="none" xmlns="http://www.w3.org/2000/svg">
<path d="M7.46155 1.74533C8.11904 1.74811 8.76112 1.94419 9.30783 2.30925C9.85455 2.67431 10.2817 3.1922 10.5359 3.79823C10.7838 4.40703 10.8519 5.07404 10.7322 5.72033C10.6006 6.36454 10.2821 6.95574 9.81648 7.42016C9.34746 7.87714 8.75719 8.19024 8.11568 8.32239C7.47055 8.45149 6.80171 8.38781 6.19257 8.13931C5.58736 7.88174 5.06944 7.45492 4.70114 6.91019C4.36734 6.41031 4.17544 5.8293 4.14602 5.22903C4.1166 4.62876 4.25078 4.03176 4.53409 3.50166C4.81741 2.97157 5.23929 2.52822 5.75484 2.21891C6.27038 1.9096 6.86025 1.74597 7.46155 1.74533ZM7.46155 1C6.6591 1.00764 5.87629 1.24923 5.2093 1.69521C4.54231 2.14119 4.02016 2.77212 3.70685 3.51052C3.40494 4.25667 3.32759 5.07469 3.48439 5.86414C3.64187 6.65152 4.0291 7.37473 4.59717 7.94251C5.16525 8.51028 5.88883 8.89723 6.67662 9.05463C7.46348 9.20614 8.27738 9.12434 9.0183 8.81928C9.76421 8.51619 10.4022 7.99672 10.8499 7.32782C11.2976 6.65893 11.5346 5.8713 11.5302 5.06654C11.5252 3.98892 11.0977 2.95617 10.3397 2.18986C9.9616 1.81232 9.51294 1.51294 9.0191 1.30878C8.52525 1.10461 7.99597 0.999692 7.46155 1Z" fill="#414042" stroke="#414042" stroke-width="0.25" stroke-miterlimit="10"/>
<path d="M7.4619 9.13302C8.90391 9.13071 10.2972 9.65399 11.381 10.6048C12.4647 11.5555 13.1645 12.8686 13.3491 14.298H1.5747C1.76465 12.8708 2.46588 11.561 3.54844 10.6112C4.631 9.66148 6.02145 9.13627 7.4619 9.13302ZM7.4619 8.3877C5.77761 8.38986 4.15637 9.02865 2.92369 10.1758C1.69101 11.3229 0.938156 12.8936 0.815964 14.5726C0.803533 14.6286 0.803533 14.6866 0.815964 14.7426C0.828924 14.7966 0.85593 14.8462 0.894377 14.8864C0.933015 14.9325 0.982424 14.9685 1.03827 14.991C1.09432 15.003 1.15229 15.003 1.20835 14.991H13.6631C13.7191 15.003 13.7771 15.003 13.8332 14.991C13.8881 14.9732 13.9376 14.9417 13.977 14.8995C14.0124 14.8501 14.0431 14.7976 14.0687 14.7426C14.0816 14.6866 14.0816 14.6285 14.0687 14.5726C13.9465 12.8936 13.1935 11.3229 11.9608 10.1758C10.7281 9.02865 9.10691 8.38986 7.42262 8.3877H7.4619Z" fill="#414042" stroke="#414042" stroke-width="0.25" stroke-miterlimit="10"/>
</svg>
