<svg width="16" height="15" viewBox="0 0 16 15" fill="none" xmlns="http://www.w3.org/2000/svg">
<path d="M6.04841 1.72834C6.91674 1.7325 7.765 1.99002 8.48902 2.4694C9.2145 2.95392 9.77943 3.64343 10.1118 4.45003C10.4477 5.25426 10.5369 6.14017 10.3681 6.99522C10.1993 7.85027 9.78006 8.6358 9.16378 9.25208C8.5475 9.86836 7.76197 10.2875 6.90692 10.4563C6.05187 10.6251 5.16604 10.5359 4.36181 10.2C3.55521 9.86765 2.8657 9.30272 2.38118 8.57724C1.93989 7.91344 1.68691 7.14238 1.64902 6.34619C1.61113 5.54999 1.78967 4.75849 2.16593 4.05579C2.54219 3.35309 3.10196 2.76553 3.78562 2.35569C4.46928 1.94585 5.25132 1.72905 6.04841 1.72834ZM6.04841 1C5.03339 1.00027 4.04145 1.30274 3.19898 1.86888C2.35316 2.4302 1.6936 3.23067 1.30446 4.16825C0.915316 5.10583 0.814264 6.13805 1.01403 7.13334C1.20883 8.13178 1.69712 9.04937 2.41643 9.76868C3.13575 10.488 4.05326 10.9763 5.0517 11.1711C6.04747 11.3621 7.07735 11.26 8.01624 10.8772C8.95327 10.4893 9.75367 9.8314 10.3157 8.98723C10.8777 8.14306 11.1759 7.15077 11.1723 6.13663C11.1737 5.46202 11.0434 4.79364 10.7889 4.16887C10.5313 3.5474 10.1535 2.98292 9.67727 2.50777C9.19606 2.03293 8.62777 1.65547 8.00345 1.39611C7.38412 1.13695 6.71977 1.00236 6.04841 1Z" fill="#414042" stroke="#414042" stroke-width="0.25" stroke-miterlimit="10"/>
<path d="M14.9941 14.1611L10.0363 9.20327C9.96625 9.13657 9.87297 9.09992 9.77627 9.1011C9.67956 9.10228 9.58713 9.1412 9.51875 9.20959C9.45036 9.27797 9.41136 9.3704 9.41018 9.46711C9.409 9.56381 9.44565 9.65709 9.51235 9.72712L14.4701 14.6849C14.5042 14.7207 14.5451 14.7493 14.5904 14.7691C14.6357 14.7888 14.6846 14.7994 14.7341 14.8C14.7835 14.8006 14.8324 14.7912 14.8782 14.7726C14.924 14.7539 14.9655 14.7263 15.0005 14.6914C15.0354 14.6564 15.0631 14.6149 15.0817 14.5691C15.1004 14.5233 15.1096 14.4743 15.109 14.4249C15.1084 14.3755 15.0979 14.3266 15.0782 14.2813C15.0584 14.236 15.0299 14.1952 14.9941 14.1611Z" fill="#414042" stroke="#414042" stroke-width="0.25" stroke-miterlimit="10"/>
</svg>
